<mxfile host="app.diagrams.net" modified="2023-12-15T13:22:43.629Z" agent="Mozilla/5.0 (Windows NT 10.0; Win64; x64) AppleWebKit/537.36 (KHTML, like Gecko) Chrome/119.0.0.0 Safari/537.36" etag="KduhUkutd_bkp-8lBJKh" version="22.1.9" type="github">
  <diagram name="Page-1" id="8378b5f6-a2b2-b727-a746-972ab9d02e00">
    <mxGraphModel dx="1018" dy="614" grid="1" gridSize="10" guides="1" tooltips="1" connect="0" arrows="1" fold="1" page="1" pageScale="1.5" pageWidth="1169" pageHeight="827" background="none" math="0" shadow="0">
      <root>
        <mxCell id="0" />
        <mxCell id="1" parent="0" />
        <mxCell id="63" value="" style="strokeColor=#DEEDFF;fillColor=#ADC3D9" parent="1" vertex="1">
          <mxGeometry x="86.5" y="380" width="40" height="20" as="geometry" />
        </mxCell>
        <mxCell id="64" value="Complete project execution" style="align=left;strokeColor=#DEEDFF;fillColor=#ADC3D9" parent="1" vertex="1">
          <mxGeometry x="126.5" y="380" width="320" height="20" as="geometry" />
        </mxCell>
        <mxCell id="65" value="1 year" style="strokeColor=#DEEDFF;fillColor=#ADC3D9" parent="1" vertex="1">
          <mxGeometry x="446.50000000000176" y="380" width="80.00000000000028" height="20" as="geometry" />
        </mxCell>
        <mxCell id="66" value="01/01/2024" style="strokeColor=#DEEDFF;fillColor=#ADC3D9" parent="1" vertex="1">
          <mxGeometry x="526.500000000002" y="380" width="80.00000000000028" height="20" as="geometry" />
        </mxCell>
        <mxCell id="67" value="01/01/2025" style="strokeColor=#DEEDFF;fillColor=#ADC3D9" parent="1" vertex="1">
          <mxGeometry x="606.5000000000016" y="380.0000000000002" width="80.00000000000028" height="20" as="geometry" />
        </mxCell>
        <mxCell id="68" value="" style="strokeColor=#DEEDFF" parent="1" vertex="1">
          <mxGeometry x="686.5" y="380" width="20" height="340" as="geometry" />
        </mxCell>
        <mxCell id="69" value="1" style="strokeColor=#DEEDFF;fillColor=#CCE5FF" parent="1" vertex="1">
          <mxGeometry x="86.50000000000026" y="399.9999999999999" width="40" height="20" as="geometry" />
        </mxCell>
        <mxCell id="70" value="Development" style="align=left;strokeColor=#DEEDFF;fillColor=#CCE5FF" parent="1" vertex="1">
          <mxGeometry x="126.50000000000026" y="399.9999999999999" width="319.9999999999998" height="20" as="geometry" />
        </mxCell>
        <mxCell id="71" value="1 year" style="strokeColor=#DEEDFF;fillColor=#CCE5FF" parent="1" vertex="1">
          <mxGeometry x="446.500000000002" y="399.99999999999983" width="80.00000000000028" height="20" as="geometry" />
        </mxCell>
        <mxCell id="72" value="01/01/2024" style="strokeColor=#DEEDFF;fillColor=#CCE5FF" parent="1" vertex="1">
          <mxGeometry x="526.5000000000023" y="399.99999999999983" width="80.00000000000028" height="20" as="geometry" />
        </mxCell>
        <mxCell id="73" value="01/01/2025" style="strokeColor=#DEEDFF;fillColor=#CCE5FF" parent="1" vertex="1">
          <mxGeometry x="606.5000000000018" y="400.0000000000001" width="80.00000000000028" height="20" as="geometry" />
        </mxCell>
        <mxCell id="74" value="1.1" style="strokeColor=#DEEDFF" parent="1" vertex="1">
          <mxGeometry x="86.50000000000027" y="419.9999999999998" width="40" height="20" as="geometry" />
        </mxCell>
        <mxCell id="75" value="Research" style="align=left;strokeColor=#DEEDFF" parent="1" vertex="1">
          <mxGeometry x="126.50000000000027" y="419.9999999999998" width="319.9999999999997" height="20.000000000000014" as="geometry" />
        </mxCell>
        <mxCell id="76" value="4 months" style="strokeColor=#DEEDFF" parent="1" vertex="1">
          <mxGeometry x="446.500000000002" y="419.9999999999997" width="80.00000000000028" height="20" as="geometry" />
        </mxCell>
        <mxCell id="77" value="01/01/2024" style="strokeColor=#DEEDFF" parent="1" vertex="1">
          <mxGeometry x="526.5000000000023" y="419.9999999999997" width="80.00000000000028" height="20" as="geometry" />
        </mxCell>
        <mxCell id="78" value="01/05/2024" style="strokeColor=#DEEDFF" parent="1" vertex="1">
          <mxGeometry x="606.5000000000018" y="420" width="80.00000000000028" height="20" as="geometry" />
        </mxCell>
        <mxCell id="79" value="1.2" style="strokeColor=#DEEDFF" parent="1" vertex="1">
          <mxGeometry x="86.5" y="440.00000000000017" width="40" height="20" as="geometry" />
        </mxCell>
        <mxCell id="80" value="Requirements specification" style="align=left;strokeColor=#DEEDFF" parent="1" vertex="1">
          <mxGeometry x="126.5" y="440.00000000000017" width="320" height="20" as="geometry" />
        </mxCell>
        <mxCell id="81" value="4 months" style="strokeColor=#DEEDFF" parent="1" vertex="1">
          <mxGeometry x="446.5000000000017" y="440.0000000000001" width="80.00000000000028" height="20" as="geometry" />
        </mxCell>
        <mxCell id="82" value="01/01/2024" style="strokeColor=#DEEDFF" parent="1" vertex="1">
          <mxGeometry x="526.500000000002" y="440.0000000000001" width="80.00000000000028" height="20" as="geometry" />
        </mxCell>
        <mxCell id="83" value="01/05/2024" style="strokeColor=#DEEDFF" parent="1" vertex="1">
          <mxGeometry x="606.5000000000015" y="440.0000000000004" width="80.00000000000028" height="20" as="geometry" />
        </mxCell>
        <mxCell id="84" value="1.3" style="strokeColor=#DEEDFF" parent="1" vertex="1">
          <mxGeometry x="86.49999999999991" y="460.00000000000017" width="40" height="20" as="geometry" />
        </mxCell>
        <mxCell id="85" value="Framework enhanchment" style="align=left;strokeColor=#DEEDFF" parent="1" vertex="1">
          <mxGeometry x="126.49999999999991" y="460.00000000000017" width="320.0000000000001" height="20" as="geometry" />
        </mxCell>
        <mxCell id="86" value="3 months" style="strokeColor=#DEEDFF" parent="1" vertex="1">
          <mxGeometry x="446.50000000000165" y="460.0000000000001" width="80.00000000000028" height="20" as="geometry" />
        </mxCell>
        <mxCell id="87" value="01/03/2024" style="strokeColor=#DEEDFF" parent="1" vertex="1">
          <mxGeometry x="526.5000000000019" y="460.0000000000001" width="80.00000000000028" height="20" as="geometry" />
        </mxCell>
        <mxCell id="88" value="01/06/2024" style="strokeColor=#DEEDFF" parent="1" vertex="1">
          <mxGeometry x="606.5000000000015" y="460.0000000000004" width="80.00000000000028" height="20" as="geometry" />
        </mxCell>
        <mxCell id="89" value="1.4" style="strokeColor=#DEEDFF" parent="1" vertex="1">
          <mxGeometry x="86.4999999999999" y="480.00000000000045" width="40" height="20" as="geometry" />
        </mxCell>
        <mxCell id="90" value="Algorithm refinement" style="align=left;strokeColor=#DEEDFF" parent="1" vertex="1">
          <mxGeometry x="126.4999999999999" y="480.00000000000045" width="320.0000000000001" height="20" as="geometry" />
        </mxCell>
        <mxCell id="91" value="4 months" style="strokeColor=#DEEDFF" parent="1" vertex="1">
          <mxGeometry x="446.50000000000165" y="480.00000000000034" width="80.00000000000028" height="20" as="geometry" />
        </mxCell>
        <mxCell id="92" value="01/04/2024" style="strokeColor=#DEEDFF" parent="1" vertex="1">
          <mxGeometry x="526.5000000000019" y="480.00000000000034" width="80.00000000000028" height="20" as="geometry" />
        </mxCell>
        <mxCell id="93" value="24.04.12" style="strokeColor=#DEEDFF" parent="1" vertex="1">
          <mxGeometry x="606.5000000000015" y="480.0000000000007" width="80.00000000000028" height="20" as="geometry" />
        </mxCell>
        <mxCell id="94" value="1.5" style="strokeColor=#DEEDFF" parent="1" vertex="1">
          <mxGeometry x="86.50000000000063" y="500.0000000000007" width="40" height="20" as="geometry" />
        </mxCell>
        <mxCell id="95" value="Code optimization and testing" style="align=left;strokeColor=#DEEDFF" parent="1" vertex="1">
          <mxGeometry x="126.50000000000063" y="500.0000000000007" width="319.9999999999994" height="20" as="geometry" />
        </mxCell>
        <mxCell id="96" value="5 months" style="strokeColor=#DEEDFF" parent="1" vertex="1">
          <mxGeometry x="446.5000000000024" y="500.0000000000007" width="80.00000000000028" height="20" as="geometry" />
        </mxCell>
        <mxCell id="97" value="01/07/2024" style="strokeColor=#DEEDFF" parent="1" vertex="1">
          <mxGeometry x="526.5000000000027" y="500.0000000000007" width="80.00000000000028" height="20" as="geometry" />
        </mxCell>
        <mxCell id="98" value="31.05.12" style="strokeColor=#DEEDFF" parent="1" vertex="1">
          <mxGeometry x="606.5000000000022" y="500.0000000000009" width="80.00000000000028" height="20" as="geometry" />
        </mxCell>
        <mxCell id="99" value="1.6" style="strokeColor=#DEEDFF" parent="1" vertex="1">
          <mxGeometry x="86.50000000000064" y="520.0000000000006" width="40" height="20" as="geometry" />
        </mxCell>
        <mxCell id="100" value="Complementary research" style="align=left;strokeColor=#DEEDFF" parent="1" vertex="1">
          <mxGeometry x="126.50000000000064" y="520.0000000000006" width="319.9999999999994" height="20" as="geometry" />
        </mxCell>
        <mxCell id="101" value="3 months" style="strokeColor=#DEEDFF" parent="1" vertex="1">
          <mxGeometry x="446.5000000000024" y="520.0000000000006" width="80.00000000000028" height="20" as="geometry" />
        </mxCell>
        <mxCell id="102" value="01/09/2024" style="strokeColor=#DEEDFF" parent="1" vertex="1">
          <mxGeometry x="526.5000000000027" y="520.0000000000006" width="80.00000000000028" height="20" as="geometry" />
        </mxCell>
        <mxCell id="103" value="1.06.12" style="strokeColor=#DEEDFF" parent="1" vertex="1">
          <mxGeometry x="606.5000000000022" y="520.0000000000008" width="80.00000000000028" height="20" as="geometry" />
        </mxCell>
        <mxCell id="104" value="2" style="strokeColor=#DEEDFF;fillColor=#CCE5FF" parent="1" vertex="1">
          <mxGeometry x="86.50000000000037" y="540.000000000001" width="40" height="20" as="geometry" />
        </mxCell>
        <mxCell id="105" value="Deployment" style="align=left;strokeColor=#DEEDFF;fillColor=#CCE5FF" parent="1" vertex="1">
          <mxGeometry x="126.50000000000037" y="540.000000000001" width="319.99999999999966" height="20.00000000000003" as="geometry" />
        </mxCell>
        <mxCell id="106" value="3 months" style="strokeColor=#DEEDFF;fillColor=#CCE5FF" parent="1" vertex="1">
          <mxGeometry x="446.5000000000021" y="540.0000000000009" width="80.00000000000028" height="20" as="geometry" />
        </mxCell>
        <mxCell id="107" value="01/04/2024" style="strokeColor=#DEEDFF;fillColor=#CCE5FF" parent="1" vertex="1">
          <mxGeometry x="526.5000000000025" y="540.0000000000009" width="80.00000000000028" height="20" as="geometry" />
        </mxCell>
        <mxCell id="108" value="01/07/2024" style="strokeColor=#DEEDFF;fillColor=#CCE5FF" parent="1" vertex="1">
          <mxGeometry x="606.5000000000018" y="540.0000000000013" width="80.00000000000028" height="20" as="geometry" />
        </mxCell>
        <mxCell id="109" value="2.1" style="strokeColor=#DEEDFF" parent="1" vertex="1">
          <mxGeometry x="86.50000000000028" y="560.000000000001" width="40" height="20" as="geometry" />
        </mxCell>
        <mxCell id="110" value="HPC resource setup" style="align=left;strokeColor=#DEEDFF" parent="1" vertex="1">
          <mxGeometry x="126.50000000000028" y="560.000000000001" width="319.9999999999997" height="20" as="geometry" />
        </mxCell>
        <mxCell id="111" value="1 months" style="strokeColor=#DEEDFF" parent="1" vertex="1">
          <mxGeometry x="446.50000000000205" y="560.0000000000009" width="80.00000000000028" height="20" as="geometry" />
        </mxCell>
        <mxCell id="112" value="01/04/2024" style="strokeColor=#DEEDFF" parent="1" vertex="1">
          <mxGeometry x="526.5000000000023" y="560.0000000000009" width="80.00000000000028" height="20" as="geometry" />
        </mxCell>
        <mxCell id="113" value="01/05/2024" style="strokeColor=#DEEDFF" parent="1" vertex="1">
          <mxGeometry x="606.5000000000018" y="560.0000000000013" width="80.00000000000028" height="20" as="geometry" />
        </mxCell>
        <mxCell id="114" value="2.2" style="strokeColor=#DEEDFF" parent="1" vertex="1">
          <mxGeometry x="86.50000000000027" y="580.0000000000013" width="40" height="20" as="geometry" />
        </mxCell>
        <mxCell id="115" value="HPC testing and monitoring" style="align=left;strokeColor=#DEEDFF" parent="1" vertex="1">
          <mxGeometry x="126.50000000000027" y="580.0000000000013" width="319.9999999999997" height="20" as="geometry" />
        </mxCell>
        <mxCell id="116" value="2 months" style="strokeColor=#DEEDFF" parent="1" vertex="1">
          <mxGeometry x="446.50000000000205" y="580.0000000000011" width="80.00000000000028" height="20" as="geometry" />
        </mxCell>
        <mxCell id="117" value="01/05/2024" style="strokeColor=#DEEDFF" parent="1" vertex="1">
          <mxGeometry x="526.5000000000023" y="580.0000000000011" width="80.00000000000028" height="20" as="geometry" />
        </mxCell>
        <mxCell id="118" value="01/07/2024" style="strokeColor=#DEEDFF" parent="1" vertex="1">
          <mxGeometry x="606.5000000000018" y="580.0000000000015" width="80.00000000000028" height="20" as="geometry" />
        </mxCell>
        <mxCell id="119" value="2.3" style="strokeColor=#DEEDFF" parent="1" vertex="1">
          <mxGeometry x="86.49999999999997" y="600.0000000000016" width="40" height="20" as="geometry" />
        </mxCell>
        <mxCell id="120" value="Performance analysis" style="align=left;strokeColor=#DEEDFF" parent="1" vertex="1">
          <mxGeometry x="126.49999999999997" y="600.0000000000016" width="320" height="20" as="geometry" />
        </mxCell>
        <mxCell id="121" value="2 months" style="strokeColor=#DEEDFF" parent="1" vertex="1">
          <mxGeometry x="446.5000000000017" y="600.0000000000015" width="80.00000000000028" height="20" as="geometry" />
        </mxCell>
        <mxCell id="122" value="01/05/2024" style="strokeColor=#DEEDFF" parent="1" vertex="1">
          <mxGeometry x="526.500000000002" y="600.0000000000015" width="80.00000000000028" height="20" as="geometry" />
        </mxCell>
        <mxCell id="123" value="01/07/2024" style="strokeColor=#DEEDFF" parent="1" vertex="1">
          <mxGeometry x="606.5000000000015" y="600.0000000000018" width="80.00000000000028" height="20" as="geometry" />
        </mxCell>
        <mxCell id="139" value="3" style="strokeColor=#DEEDFF;fillColor=#CCE5FF" parent="1" vertex="1">
          <mxGeometry x="86.49999999999962" y="620.000000000002" width="40" height="20" as="geometry" />
        </mxCell>
        <mxCell id="140" value="Maintainance &amp; dissemination" style="align=left;strokeColor=#DEEDFF;fillColor=#CCE5FF" parent="1" vertex="1">
          <mxGeometry x="126.49999999999962" y="620.000000000002" width="320.0000000000004" height="20" as="geometry" />
        </mxCell>
        <mxCell id="141" value="6 months" style="strokeColor=#DEEDFF;fillColor=#CCE5FF" parent="1" vertex="1">
          <mxGeometry x="446.50000000000136" y="620.000000000002" width="80.00000000000028" height="20" as="geometry" />
        </mxCell>
        <mxCell id="142" value="01/06/2024" style="strokeColor=#DEEDFF;fillColor=#CCE5FF" parent="1" vertex="1">
          <mxGeometry x="526.5000000000016" y="620.000000000002" width="80.00000000000028" height="20" as="geometry" />
        </mxCell>
        <mxCell id="143" value="01/01/2025" style="strokeColor=#DEEDFF;fillColor=#CCE5FF" parent="1" vertex="1">
          <mxGeometry x="606.5000000000011" y="620.0000000000023" width="80.00000000000028" height="20" as="geometry" />
        </mxCell>
        <mxCell id="144" value="3.1" style="strokeColor=#DEEDFF" parent="1" vertex="1">
          <mxGeometry x="86.500000000001" y="640.0000000000023" width="40" height="20" as="geometry" />
        </mxCell>
        <mxCell id="145" value="Ongoing Maintenance" style="align=left;strokeColor=#DEEDFF" parent="1" vertex="1">
          <mxGeometry x="126.500000000001" y="640.0000000000023" width="319.999999999999" height="20" as="geometry" />
        </mxCell>
        <mxCell id="146" value="6 months" style="strokeColor=#DEEDFF" parent="1" vertex="1">
          <mxGeometry x="446.50000000000273" y="640.0000000000023" width="80.00000000000028" height="20" as="geometry" />
        </mxCell>
        <mxCell id="147" value="19.04.12" style="strokeColor=#DEEDFF" parent="1" vertex="1">
          <mxGeometry x="526.500000000003" y="640.0000000000023" width="80.00000000000028" height="20" as="geometry" />
        </mxCell>
        <mxCell id="148" value="27.04.12" style="strokeColor=#DEEDFF" parent="1" vertex="1">
          <mxGeometry x="606.5000000000025" y="640.0000000000025" width="80.00000000000028" height="20" as="geometry" />
        </mxCell>
        <mxCell id="149" value="3.2" style="strokeColor=#DEEDFF" parent="1" vertex="1">
          <mxGeometry x="86.50000000000102" y="660.0000000000022" width="40" height="20" as="geometry" />
        </mxCell>
        <mxCell id="150" value="Results documentation" style="align=left;strokeColor=#DEEDFF" parent="1" vertex="1">
          <mxGeometry x="126.50000000000102" y="660.0000000000022" width="319.999999999999" height="20" as="geometry" />
        </mxCell>
        <mxCell id="151" value="5 months" style="strokeColor=#DEEDFF" parent="1" vertex="1">
          <mxGeometry x="446.50000000000273" y="660.000000000002" width="80.00000000000028" height="20" as="geometry" />
        </mxCell>
        <mxCell id="152" value="30.04.12" style="strokeColor=#DEEDFF" parent="1" vertex="1">
          <mxGeometry x="526.500000000003" y="660.000000000002" width="80.00000000000028" height="20" as="geometry" />
        </mxCell>
        <mxCell id="153" value="3.05.12" style="strokeColor=#DEEDFF" parent="1" vertex="1">
          <mxGeometry x="606.5000000000025" y="660.0000000000024" width="80.00000000000028" height="20" as="geometry" />
        </mxCell>
        <mxCell id="154" value="3.3" style="strokeColor=#DEEDFF" parent="1" vertex="1">
          <mxGeometry x="86.50000000000074" y="680.0000000000025" width="40" height="20" as="geometry" />
        </mxCell>
        <mxCell id="155" value="Dissemination of the framework" style="align=left;strokeColor=#DEEDFF" parent="1" vertex="1">
          <mxGeometry x="126.50000000000074" y="680.0000000000025" width="319.99999999999926" height="20" as="geometry" />
        </mxCell>
        <mxCell id="156" value="4 months" style="strokeColor=#DEEDFF" parent="1" vertex="1">
          <mxGeometry x="446.50000000000244" y="680.0000000000025" width="80.00000000000028" height="20" as="geometry" />
        </mxCell>
        <mxCell id="157" value="4.05.12" style="strokeColor=#DEEDFF" parent="1" vertex="1">
          <mxGeometry x="526.5000000000027" y="680.0000000000025" width="80.00000000000028" height="20" as="geometry" />
        </mxCell>
        <mxCell id="158" value="22.05.12" style="strokeColor=#DEEDFF" parent="1" vertex="1">
          <mxGeometry x="606.5000000000023" y="680.0000000000027" width="80.00000000000028" height="20" as="geometry" />
        </mxCell>
        <mxCell id="159" value="3.4" style="strokeColor=#DEEDFF" parent="1" vertex="1">
          <mxGeometry x="86.50000000000065" y="700.0000000000025" width="40" height="20" as="geometry" />
        </mxCell>
        <mxCell id="160" value="Publication of related research" style="align=left;strokeColor=#DEEDFF" parent="1" vertex="1">
          <mxGeometry x="126.50000000000065" y="700.0000000000025" width="319.9999999999993" height="20" as="geometry" />
        </mxCell>
        <mxCell id="161" value="3 months" style="strokeColor=#DEEDFF" parent="1" vertex="1">
          <mxGeometry x="446.5000000000024" y="700.0000000000025" width="80.00000000000028" height="20" as="geometry" />
        </mxCell>
        <mxCell id="162" value="23.05.12" style="strokeColor=#DEEDFF" parent="1" vertex="1">
          <mxGeometry x="526.5000000000027" y="700.0000000000025" width="80.00000000000028" height="20" as="geometry" />
        </mxCell>
        <mxCell id="163" value="23.05.12" style="strokeColor=#DEEDFF" parent="1" vertex="1">
          <mxGeometry x="606.5000000000023" y="700.0000000000027" width="80.00000000000028" height="20" as="geometry" />
        </mxCell>
        <mxCell id="194" value="" style="strokeColor=#DEEDFF" parent="1" vertex="1">
          <mxGeometry x="706.5" y="380" width="20" height="340" as="geometry" />
        </mxCell>
        <mxCell id="195" value="" style="strokeColor=#DEEDFF" parent="1" vertex="1">
          <mxGeometry x="726.5" y="380" width="20" height="340" as="geometry" />
        </mxCell>
        <mxCell id="196" value="" style="strokeColor=#DEEDFF" parent="1" vertex="1">
          <mxGeometry x="746.5" y="380" width="20" height="340" as="geometry" />
        </mxCell>
        <mxCell id="197" value="" style="strokeColor=#DEEDFF" parent="1" vertex="1">
          <mxGeometry x="766.5" y="380" width="20" height="340" as="geometry" />
        </mxCell>
        <mxCell id="200" value="" style="strokeColor=#DEEDFF" parent="1" vertex="1">
          <mxGeometry x="786.5" y="380" width="20" height="340" as="geometry" />
        </mxCell>
        <mxCell id="201" value="" style="strokeColor=#DEEDFF" parent="1" vertex="1">
          <mxGeometry x="806.5" y="380" width="20" height="340" as="geometry" />
        </mxCell>
        <mxCell id="202" value="" style="strokeColor=#DEEDFF" parent="1" vertex="1">
          <mxGeometry x="826.5" y="380" width="20" height="340" as="geometry" />
        </mxCell>
        <mxCell id="203" value="" style="strokeColor=#DEEDFF" parent="1" vertex="1">
          <mxGeometry x="846.5" y="380" width="20" height="340" as="geometry" />
        </mxCell>
        <mxCell id="2" value="Task Name" style="fillColor=#23445D;strokeColor=#FFFFFF;strokeWidth=2;fontColor=#FFFFFF;fontStyle=1" parent="1" vertex="1">
          <mxGeometry x="126.5" y="340" width="320" height="40" as="geometry" />
        </mxCell>
        <mxCell id="3" value="" style="fillColor=#23445D;strokeColor=#FFFFFF;strokeWidth=2;fontColor=#FFFFFF;fontStyle=1" parent="1" vertex="1">
          <mxGeometry x="86.5" y="340" width="40" height="40" as="geometry" />
        </mxCell>
        <mxCell id="4" value="January" style="fillColor=#23445D;strokeColor=#FFFFFF;strokeWidth=2;fontColor=#FFFFFF;fontStyle=1" parent="1" vertex="1">
          <mxGeometry x="686.5" y="340" width="103.5" height="40" as="geometry" />
        </mxCell>
        <mxCell id="12" value="Duration" style="fillColor=#23445D;strokeColor=#FFFFFF;strokeWidth=2;fontColor=#FFFFFF;fontStyle=1" parent="1" vertex="1">
          <mxGeometry x="446.50000000000176" y="340.00000000000006" width="80.00000000000006" height="40.00000000000001" as="geometry" />
        </mxCell>
        <mxCell id="13" value="Start" style="fillColor=#23445D;strokeColor=#FFFFFF;strokeWidth=2;fontColor=#FFFFFF;fontStyle=1" parent="1" vertex="1">
          <mxGeometry x="526.5000000000018" y="340.00000000000006" width="80.00000000000006" height="40.00000000000001" as="geometry" />
        </mxCell>
        <mxCell id="14" value="ETA" style="fillColor=#23445D;strokeColor=#FFFFFF;strokeWidth=2;fontColor=#FFFFFF;fontStyle=1" parent="1" vertex="1">
          <mxGeometry x="606.5000000000019" y="340.0000000000001" width="80.00000000000006" height="40.00000000000001" as="geometry" />
        </mxCell>
        <mxCell id="15" value="February" style="fillColor=#23445D;strokeColor=#FFFFFF;strokeWidth=2;fontColor=#FFFFFF;fontStyle=1" parent="1" vertex="1">
          <mxGeometry x="790" y="340" width="80" height="40" as="geometry" />
        </mxCell>
        <mxCell id="1Si9E8IDItODyJmvBfmU-278" value="" style="shape=mxgraph.arrows.bent_right_arrow;fillColor=#AE4132;strokeColor=none;strokeWidth=2;direction=south" vertex="1" parent="1">
          <mxGeometry x="600.000000000002" y="779.9999999999997" width="10.000000000000341" height="9.99999999999983" as="geometry" />
        </mxCell>
        <mxCell id="1Si9E8IDItODyJmvBfmU-279" value="" style="shape=mxgraph.flowchart.process;fillColor=#AE4132;strokeColor=none;strokeWidth=2;opacity=50" vertex="1" parent="1">
          <mxGeometry x="580.0000000000032" y="769.9999999999998" width="19.999999999998863" height="19.99999999999983" as="geometry" />
        </mxCell>
        <mxCell id="1Si9E8IDItODyJmvBfmU-280" value="" style="shape=mxgraph.flowchart.process;fillColor=#AE4132;strokeColor=none;strokeWidth=2;opacity=50" vertex="1" parent="1">
          <mxGeometry x="600.0000000000018" y="790.0000000000006" width="40.00000000000023" height="19.99999999999983" as="geometry" />
        </mxCell>
        <mxCell id="1Si9E8IDItODyJmvBfmU-281" value="" style="shape=mxgraph.arrows.bent_right_arrow;fillColor=#AE4132;strokeColor=none;strokeWidth=2;direction=south" vertex="1" parent="1">
          <mxGeometry x="640.000000000001" y="799.9999999999994" width="10.000000000000341" height="9.99999999999983" as="geometry" />
        </mxCell>
        <mxCell id="1Si9E8IDItODyJmvBfmU-282" value="March" style="fillColor=#23445D;strokeColor=#FFFFFF;strokeWidth=2;fontColor=#FFFFFF;fontStyle=1" vertex="1" parent="1">
          <mxGeometry x="867" y="340" width="100" height="40" as="geometry" />
        </mxCell>
        <mxCell id="1Si9E8IDItODyJmvBfmU-283" value="April" style="fillColor=#23445D;strokeColor=#FFFFFF;strokeWidth=2;fontColor=#FFFFFF;fontStyle=1" vertex="1" parent="1">
          <mxGeometry x="966.25" y="340" width="102.5" height="40" as="geometry" />
        </mxCell>
        <mxCell id="1Si9E8IDItODyJmvBfmU-284" value="May" style="fillColor=#23445D;strokeColor=#FFFFFF;strokeWidth=2;fontColor=#FFFFFF;fontStyle=1" vertex="1" parent="1">
          <mxGeometry x="1067.5" y="340" width="102.5" height="40" as="geometry" />
        </mxCell>
        <mxCell id="1Si9E8IDItODyJmvBfmU-285" value="" style="strokeColor=#DEEDFF" vertex="1" parent="1">
          <mxGeometry x="867" y="380" width="20" height="340" as="geometry" />
        </mxCell>
        <mxCell id="1Si9E8IDItODyJmvBfmU-286" value="" style="strokeColor=#DEEDFF" vertex="1" parent="1">
          <mxGeometry x="887" y="380" width="20" height="340" as="geometry" />
        </mxCell>
        <mxCell id="1Si9E8IDItODyJmvBfmU-287" value="" style="strokeColor=#DEEDFF" vertex="1" parent="1">
          <mxGeometry x="907" y="380" width="20" height="340" as="geometry" />
        </mxCell>
        <mxCell id="1Si9E8IDItODyJmvBfmU-288" value="" style="strokeColor=#DEEDFF" vertex="1" parent="1">
          <mxGeometry x="927" y="380" width="20" height="340" as="geometry" />
        </mxCell>
        <mxCell id="1Si9E8IDItODyJmvBfmU-289" value="" style="strokeColor=#DEEDFF" vertex="1" parent="1">
          <mxGeometry x="947" y="380" width="20" height="340" as="geometry" />
        </mxCell>
        <mxCell id="1Si9E8IDItODyJmvBfmU-290" value="" style="strokeColor=#DEEDFF" vertex="1" parent="1">
          <mxGeometry x="967.5" y="380" width="20" height="340" as="geometry" />
        </mxCell>
        <mxCell id="1Si9E8IDItODyJmvBfmU-291" value="" style="strokeColor=#DEEDFF" vertex="1" parent="1">
          <mxGeometry x="987.5" y="380" width="20" height="340" as="geometry" />
        </mxCell>
        <mxCell id="1Si9E8IDItODyJmvBfmU-292" value="" style="strokeColor=#DEEDFF" vertex="1" parent="1">
          <mxGeometry x="1007.5" y="380" width="20" height="340" as="geometry" />
        </mxCell>
        <mxCell id="1Si9E8IDItODyJmvBfmU-293" value="" style="strokeColor=#DEEDFF" vertex="1" parent="1">
          <mxGeometry x="1027.5" y="380" width="20" height="340" as="geometry" />
        </mxCell>
        <mxCell id="1Si9E8IDItODyJmvBfmU-294" value="" style="strokeColor=#DEEDFF" vertex="1" parent="1">
          <mxGeometry x="1047.5" y="380" width="20" height="340" as="geometry" />
        </mxCell>
        <mxCell id="1Si9E8IDItODyJmvBfmU-295" value="" style="strokeColor=#DEEDFF" vertex="1" parent="1">
          <mxGeometry x="1068" y="380" width="20" height="340" as="geometry" />
        </mxCell>
        <mxCell id="1Si9E8IDItODyJmvBfmU-296" value="" style="strokeColor=#DEEDFF" vertex="1" parent="1">
          <mxGeometry x="1088" y="380" width="20" height="340" as="geometry" />
        </mxCell>
        <mxCell id="1Si9E8IDItODyJmvBfmU-297" value="" style="strokeColor=#DEEDFF" vertex="1" parent="1">
          <mxGeometry x="1108" y="380" width="20" height="340" as="geometry" />
        </mxCell>
        <mxCell id="1Si9E8IDItODyJmvBfmU-298" value="" style="strokeColor=#DEEDFF" vertex="1" parent="1">
          <mxGeometry x="1128" y="380" width="20" height="340" as="geometry" />
        </mxCell>
        <mxCell id="1Si9E8IDItODyJmvBfmU-299" value="" style="strokeColor=#DEEDFF" vertex="1" parent="1">
          <mxGeometry x="1148" y="380" width="20" height="340" as="geometry" />
        </mxCell>
        <mxCell id="1Si9E8IDItODyJmvBfmU-300" value="" style="strokeColor=#DEEDFF" vertex="1" parent="1">
          <mxGeometry x="1168.5" y="380" width="20" height="340" as="geometry" />
        </mxCell>
        <mxCell id="1Si9E8IDItODyJmvBfmU-301" value="" style="strokeColor=#DEEDFF" vertex="1" parent="1">
          <mxGeometry x="1188.5" y="380" width="20" height="340" as="geometry" />
        </mxCell>
        <mxCell id="1Si9E8IDItODyJmvBfmU-302" value="" style="strokeColor=#DEEDFF" vertex="1" parent="1">
          <mxGeometry x="1208.5" y="380" width="20" height="340" as="geometry" />
        </mxCell>
        <mxCell id="1Si9E8IDItODyJmvBfmU-303" value="" style="strokeColor=#DEEDFF" vertex="1" parent="1">
          <mxGeometry x="1228.5" y="380" width="20" height="340" as="geometry" />
        </mxCell>
        <mxCell id="1Si9E8IDItODyJmvBfmU-304" value="" style="strokeColor=#DEEDFF" vertex="1" parent="1">
          <mxGeometry x="1248.5" y="380" width="20" height="340" as="geometry" />
        </mxCell>
        <mxCell id="1Si9E8IDItODyJmvBfmU-305" value="" style="strokeColor=#DEEDFF" vertex="1" parent="1">
          <mxGeometry x="1269" y="380" width="20" height="340" as="geometry" />
        </mxCell>
        <mxCell id="1Si9E8IDItODyJmvBfmU-306" value="June" style="fillColor=#23445D;strokeColor=#FFFFFF;strokeWidth=2;fontColor=#FFFFFF;fontStyle=1" vertex="1" parent="1">
          <mxGeometry x="1169" y="340" width="100" height="40" as="geometry" />
        </mxCell>
        <mxCell id="1Si9E8IDItODyJmvBfmU-307" value="July" style="fillColor=#23445D;strokeColor=#FFFFFF;strokeWidth=2;fontColor=#FFFFFF;fontStyle=1" vertex="1" parent="1">
          <mxGeometry x="1268.5" y="340" width="100" height="40" as="geometry" />
        </mxCell>
        <mxCell id="1Si9E8IDItODyJmvBfmU-308" value="August" style="fillColor=#23445D;strokeColor=#FFFFFF;strokeWidth=2;fontColor=#FFFFFF;fontStyle=1" vertex="1" parent="1">
          <mxGeometry x="1368.5" y="340" width="101.5" height="40" as="geometry" />
        </mxCell>
        <mxCell id="1Si9E8IDItODyJmvBfmU-309" value="September" style="fillColor=#23445D;strokeColor=#FFFFFF;strokeWidth=2;fontColor=#FFFFFF;fontStyle=1" vertex="1" parent="1">
          <mxGeometry x="1470" y="340" width="100" height="40" as="geometry" />
        </mxCell>
        <mxCell id="1Si9E8IDItODyJmvBfmU-310" value="October" style="fillColor=#23445D;strokeColor=#FFFFFF;strokeWidth=2;fontColor=#FFFFFF;fontStyle=1" vertex="1" parent="1">
          <mxGeometry x="1571" y="340" width="100" height="40" as="geometry" />
        </mxCell>
        <mxCell id="1Si9E8IDItODyJmvBfmU-311" value="November" style="fillColor=#23445D;strokeColor=#FFFFFF;strokeWidth=2;fontColor=#FFFFFF;fontStyle=1" vertex="1" parent="1">
          <mxGeometry x="1671" y="340" width="109" height="40" as="geometry" />
        </mxCell>
        <mxCell id="1Si9E8IDItODyJmvBfmU-312" value="December" style="fillColor=#23445D;strokeColor=#FFFFFF;strokeWidth=2;fontColor=#FFFFFF;fontStyle=1" vertex="1" parent="1">
          <mxGeometry x="1774" y="340" width="99" height="40" as="geometry" />
        </mxCell>
        <mxCell id="1Si9E8IDItODyJmvBfmU-313" value="" style="strokeColor=#DEEDFF" vertex="1" parent="1">
          <mxGeometry x="1290" y="380" width="20" height="340" as="geometry" />
        </mxCell>
        <mxCell id="1Si9E8IDItODyJmvBfmU-314" value="" style="strokeColor=#DEEDFF" vertex="1" parent="1">
          <mxGeometry x="1310" y="380" width="20" height="340" as="geometry" />
        </mxCell>
        <mxCell id="1Si9E8IDItODyJmvBfmU-315" value="" style="strokeColor=#DEEDFF" vertex="1" parent="1">
          <mxGeometry x="1330" y="380" width="20" height="340" as="geometry" />
        </mxCell>
        <mxCell id="1Si9E8IDItODyJmvBfmU-316" value="" style="strokeColor=#DEEDFF" vertex="1" parent="1">
          <mxGeometry x="1350" y="380" width="20" height="340" as="geometry" />
        </mxCell>
        <mxCell id="1Si9E8IDItODyJmvBfmU-317" value="" style="strokeColor=#DEEDFF" vertex="1" parent="1">
          <mxGeometry x="1370" y="380" width="20" height="340" as="geometry" />
        </mxCell>
        <mxCell id="1Si9E8IDItODyJmvBfmU-318" value="" style="strokeColor=#DEEDFF" vertex="1" parent="1">
          <mxGeometry x="1390.5" y="380" width="20" height="340" as="geometry" />
        </mxCell>
        <mxCell id="1Si9E8IDItODyJmvBfmU-319" value="" style="strokeColor=#DEEDFF" vertex="1" parent="1">
          <mxGeometry x="1410.5" y="380" width="20" height="340" as="geometry" />
        </mxCell>
        <mxCell id="1Si9E8IDItODyJmvBfmU-320" value="" style="strokeColor=#DEEDFF" vertex="1" parent="1">
          <mxGeometry x="1430.5" y="380" width="20" height="340" as="geometry" />
        </mxCell>
        <mxCell id="1Si9E8IDItODyJmvBfmU-321" value="" style="strokeColor=#DEEDFF" vertex="1" parent="1">
          <mxGeometry x="1450.5" y="380" width="20" height="340" as="geometry" />
        </mxCell>
        <mxCell id="1Si9E8IDItODyJmvBfmU-322" value="" style="strokeColor=#DEEDFF" vertex="1" parent="1">
          <mxGeometry x="1470.5" y="380" width="20" height="340" as="geometry" />
        </mxCell>
        <mxCell id="1Si9E8IDItODyJmvBfmU-323" value="" style="strokeColor=#DEEDFF" vertex="1" parent="1">
          <mxGeometry x="1491" y="380" width="20" height="340" as="geometry" />
        </mxCell>
        <mxCell id="1Si9E8IDItODyJmvBfmU-324" value="" style="strokeColor=#DEEDFF" vertex="1" parent="1">
          <mxGeometry x="1511" y="380" width="20" height="340" as="geometry" />
        </mxCell>
        <mxCell id="1Si9E8IDItODyJmvBfmU-325" value="" style="strokeColor=#DEEDFF" vertex="1" parent="1">
          <mxGeometry x="1531" y="380" width="20" height="340" as="geometry" />
        </mxCell>
        <mxCell id="1Si9E8IDItODyJmvBfmU-326" value="" style="strokeColor=#DEEDFF" vertex="1" parent="1">
          <mxGeometry x="1551" y="380" width="20" height="340" as="geometry" />
        </mxCell>
        <mxCell id="1Si9E8IDItODyJmvBfmU-327" value="" style="strokeColor=#DEEDFF" vertex="1" parent="1">
          <mxGeometry x="1571" y="380" width="20" height="340" as="geometry" />
        </mxCell>
        <mxCell id="1Si9E8IDItODyJmvBfmU-328" value="" style="strokeColor=#DEEDFF" vertex="1" parent="1">
          <mxGeometry x="1591.5" y="380" width="20" height="340" as="geometry" />
        </mxCell>
        <mxCell id="1Si9E8IDItODyJmvBfmU-329" value="" style="strokeColor=#DEEDFF" vertex="1" parent="1">
          <mxGeometry x="1611.5" y="380" width="20" height="340" as="geometry" />
        </mxCell>
        <mxCell id="1Si9E8IDItODyJmvBfmU-330" value="" style="strokeColor=#DEEDFF" vertex="1" parent="1">
          <mxGeometry x="1631.5" y="380" width="20" height="340" as="geometry" />
        </mxCell>
        <mxCell id="1Si9E8IDItODyJmvBfmU-331" value="" style="strokeColor=#DEEDFF" vertex="1" parent="1">
          <mxGeometry x="1651.5" y="380" width="20" height="340" as="geometry" />
        </mxCell>
        <mxCell id="1Si9E8IDItODyJmvBfmU-332" value="" style="strokeColor=#DEEDFF" vertex="1" parent="1">
          <mxGeometry x="1671.5" y="380" width="20" height="340" as="geometry" />
        </mxCell>
        <mxCell id="1Si9E8IDItODyJmvBfmU-333" value="" style="strokeColor=#DEEDFF" vertex="1" parent="1">
          <mxGeometry x="1692" y="380" width="20" height="340" as="geometry" />
        </mxCell>
        <mxCell id="1Si9E8IDItODyJmvBfmU-334" value="" style="strokeColor=#DEEDFF" vertex="1" parent="1">
          <mxGeometry x="1712" y="380" width="20" height="340" as="geometry" />
        </mxCell>
        <mxCell id="1Si9E8IDItODyJmvBfmU-335" value="" style="strokeColor=#DEEDFF" vertex="1" parent="1">
          <mxGeometry x="1732" y="380" width="20" height="340" as="geometry" />
        </mxCell>
        <mxCell id="1Si9E8IDItODyJmvBfmU-336" value="" style="strokeColor=#DEEDFF" vertex="1" parent="1">
          <mxGeometry x="1752" y="380" width="20" height="340" as="geometry" />
        </mxCell>
        <mxCell id="1Si9E8IDItODyJmvBfmU-337" value="" style="strokeColor=#DEEDFF" vertex="1" parent="1">
          <mxGeometry x="1772.5" y="380" width="20" height="340" as="geometry" />
        </mxCell>
        <mxCell id="1Si9E8IDItODyJmvBfmU-338" value="" style="strokeColor=#DEEDFF" vertex="1" parent="1">
          <mxGeometry x="1792.5" y="380" width="20" height="340" as="geometry" />
        </mxCell>
        <mxCell id="1Si9E8IDItODyJmvBfmU-339" value="" style="strokeColor=#DEEDFF" vertex="1" parent="1">
          <mxGeometry x="1812.5" y="380" width="20" height="340" as="geometry" />
        </mxCell>
        <mxCell id="1Si9E8IDItODyJmvBfmU-340" value="" style="strokeColor=#DEEDFF" vertex="1" parent="1">
          <mxGeometry x="1832.5" y="380" width="20" height="340" as="geometry" />
        </mxCell>
        <mxCell id="1Si9E8IDItODyJmvBfmU-341" value="" style="strokeColor=#DEEDFF" vertex="1" parent="1">
          <mxGeometry x="1853" y="380" width="20" height="340" as="geometry" />
        </mxCell>
        <mxCell id="254" value="" style="shape=mxgraph.flowchart.process;fillColor=#AE4132;strokeColor=#000000;strokeWidth=2;opacity=100" parent="1" vertex="1">
          <mxGeometry x="686.5" y="380" width="1183.5" height="20" as="geometry" />
        </mxCell>
        <mxCell id="242" value="" style="shape=mxgraph.flowchart.process;fillColor=#AE4132;strokeColor=#000000;strokeWidth=2;opacity=50" parent="1" vertex="1">
          <mxGeometry x="686.5" y="400" width="1183.5" height="20" as="geometry" />
        </mxCell>
      </root>
    </mxGraphModel>
  </diagram>
</mxfile>
